<svg data-v-0dd9719b="" version="1.0" xmlns="http://www.w3.org/2000/svg" xmlns:xlink="http://www.w3.org/1999/xlink" width="100%" height="100%" viewBox="0 0 340.000000 250.000000" preserveAspectRatio="xMidYMid meet" color-interpolation-filters="sRGB" style="margin: auto;"> <rect data-v-0dd9719b="" x="0" y="0" width="100%" height="100%" fill="#fff" fill-opacity="1" class="background"></rect> <rect data-v-0dd9719b="" x="0" y="0" width="100%" height="100%" fill="url(#watermark)" fill-opacity="1" class="watermarklayer"></rect> <g data-v-0dd9719b="" fill="#333" class="icon-text-wrapper icon-svg-group iconsvg" transform="translate(47.17500305223988,96.17374801635742)"><g class="iconsvg-imagesvg" transform="translate(0,3.5449962615966797)"><g><rect fill="#333" fill-opacity="0" stroke-width="2" x="0" y="0" width="60" height="50.56250790039186" class="image-rect"></rect> <svg x="0" y="0" width="60" height="50.56250790039186" filtersec="colorsb1593154100" class="image-svg-svg primary" style="overflow: visible;"><svg xmlns="http://www.w3.org/2000/svg" viewBox="-0.011852025985717773 0.0011575818061828613 115.91573333740234 97.6831283569336"><title>资源 76</title><path d="M19.54 37.55a4.73 4.73 0 0 1 2.68-.29h71.7c6.16 0 12.32.14 18.48.07 1.72 0 2.46.47 2.83 2.22 1.23 5.79 1.31 5.77-4.45 5.77q-44.59.07-89.18.12c-1.05 0-2.16.3-3.17-.3zM18.85 52.93a5.25 5.25 0 0 1 2.69-.27h73.42c6.24 0 12.48.15 18.72.1 1.78 0 2.3.51 2.08 2.3-.68 5.73-.63 5.73-6.32 5.74L22.8 61c-1 0-2 .3-2.91-.32a27.82 27.82 0 0 1-1.04-7.75zM26 22.1a5.52 5.52 0 0 1 2.93-.28c25.24 0 50.48.09 75.72 0 2.59 0 4.06.75 5.26 3 2.65 5.08 2.76 5-2.82 5q-40.86 0-81.71.08a6 6 0 0 1-2.94-.24C23 26.9 25.26 24.87 26 22.1zM22.81 68.47c.84-.53 1.78-.28 2.68-.28q41.84 0 83.67.07c3 0 2.81 0 1.65 2.84-1.6 4-4.06 5.31-8.49 5.27-24.31-.23-48.62-.06-72.94-.05a5.89 5.89 0 0 1-2.94-.26c-.93-2.66-3.23-4.67-3.63-7.59zM56.9.77C64-.11 71-.52 78 1.13a48.77 48.77 0 0 1 21.9 11.38 13 13 0 0 1 1 1.05 1.4 1.4 0 0 1 .21.46c-.28.8-1 .46-1.47.46H35.2a14.17 14.17 0 0 1-1.94-.28c2.34-3.24 5.75-5.15 9-7.3C46.78 3.94 52 2.71 56.9.77zM33 84a14.22 14.22 0 0 1 1.71-.2h64.14c.56 0 1.12.06 1.68.09.21 1-.56 1.25-1 1.63C88.26 95.26 75.16 99 60.42 97.28c-1.15-.13-2.31-.21-3.47-.32a14 14 0 0 0-2-.89A53 53 0 0 1 33 84z" fill="#1a74bb"></path><path d="M56.9.77C52 2.71 46.78 3.94 42.3 6.91c-3.24 2.15-6.65 4.06-9 7.3-6.18.49-12.36.08-18.6-.11C26.58 2.68 40.61-1.83 56.9.77zM33 84a53 53 0 0 0 21.89 12.1A14 14 0 0 1 57 97c-16 2.38-29.86-1.78-42.37-13zM22.81 68.47c.4 2.92 2.7 4.93 3.63 7.59-5.65 0-11.29 0-16.94.11a2.35 2.35 0 0 1-2.31-1.48c-1.05-2-3.37-4.09-2.65-5.84.56-1.38 3.78-.4 5.81-.43 4.15-.07 8.31.02 12.46.05zM18.85 52.93a27.82 27.82 0 0 0 1 7.7c-5.71 0-11.43 0-17.14.09-1.11 0-1.56-.38-1.84-1.48-1.58-6.35-1.61-6.34 4.81-6.34zM19.54 37.55l-1.11 7.58H.68c-.7-1.21-.31-6.65.6-7.34a2.42 2.42 0 0 1 1.4-.31q8.43.02 16.86.07zM26 22.1c-.72 2.77-3 4.8-3.56 7.64H3.81a32.59 32.59 0 0 1 3.55-7A1.69 1.69 0 0 1 9.08 22z" fill="#1b1652"></path><path d="M.68 45.13h1.56a1.49 1.49 0 0 1-1.56 0zM7.64 45.14h1.59a1.56 1.56 0 0 1-1.59 0z" fill="#1a74bb"></path></svg></svg> <!----></g></g> <g transform="translate(67,0)"><g data-gra="path-name" fill-rule="" class="tp-name iconsvg-namesvg" transform="translate(0,0)"><g transform="scale(1)"><g><path d="M23.58-38.88L10.93-32.22-0.4-26.46 3.51-21.64 23.49-32.85 41.35-21.87 45.49-27.31 34.56-32.98ZM6.25 3.06L39.6 2.16 38.74-14.54 6.57-13.81ZM12.33-8.32L32.98-9.18 33.52-3.06 12.6-2.61ZM8.64-23.36L9.09-17.32 36.18-18.86 35.87-23.89ZM87.7-3.87L71.91-2.7 71.69-14.26 86.58-14.63 86.76-36.45 66.06-35.95 66.33-14.13 66.51 2.79 87.93 2.16ZM81.45-19.84L78.97-19.71 79.02-29.25 73.62-29.11 74.11-19.53 71.59-19.39 71.28-30.78 81.22-30.82ZM54 2.7L53.69-7.83 57.78-7.83 57.51-13.9 53.55-13.59 53.37-18.68 57.6-18.77 57.42-24.57 53.19-24.21 53.01-30.15 58.5-30.24 58.55 2.83 63.99 3.06 64.17-36.72 47.84-36.41 48.33 2.92ZM115.02-2.21L110.34-2.7 110.03 3.33 120.6 3.06 120.33-38.2 114.03-37.93ZM100.71-23.27L107.23-23.89 99.58 2.11 105.61 3.46 113.58-29.61 100.31-29.34ZM134.41-30.46L130.09-34.47 120.96-22.77 127.84 3.06 134.41 1.48 126.27-22ZM97.42-36.72L91.31-35.95 94.68-20.75 99.81-21.55ZM91.08 1.89L97.29 2.52 99.86-18.59 94.91-18.77ZM178.02-7.15L169.43-6.97 169.34-9.76 176.94-9.95 177.34-31.41 154.98-30.82 155.52-9.58 163.94-9.67 163.94-6.93 154.49-6.84 154.8-0.85 164.03-1.3 164.03 3.82 169.78 3.51 169.6-1.62 178.25-2.02ZM169.16-15.62L169.06-18.27 171.36-18.5 171.18-23.09 168.93-23.04 168.84-25.74 171.99-25.92 172.26-15.84ZM160.11-25.2L163.89-25.43 163.89-22.9 161.1-22.81 161.46-17.68 163.89-17.86 163.94-15.25 160.69-15.07ZM163.26-37.71L156.56-37.21 158.85-31.86 164.03-32.09ZM168.8-37.8L168.16-32.35 173.52-32.13 175.72-37.35ZM149.44-2.65L147.78-2.7 147.82-8.64 153.27-8.82 153.31-32.35 148.19-32.13 148.28-37.75 143.01-37.57 143.15-31.95 137.88-31.72 138.33-8.28 143.73-8.5 143.87-2.75 137.61-2.88 137.38 2.61 153.72 2.02 152.95-7.51 148.91-7.02ZM149.26-13.41L147.96-13.41 148.14-26.86 149.22-26.95ZM141.84-26.5L143.32-26.59 143.64-13.37 142.29-13.37Z" transform="translate(0.4000000059604645, 38.880001068115234)"></path></g> <!----> <!----> <!----> <!----> <!----> <!----> <!----></g></g> <g data-gra="path-slogan" fill-rule="" class="tp-slogan iconsvg-slogansvg" fill="#333" transform="translate(39.42499542236328,48.70000076293945)"><!----> <!----> <g transform="scale(1, 1)"><g transform="scale(1)"><path d="M2.06-5.06L6.56-5.06L6.56-8.58L7.73-8.58L7.73 0L6.56 0L6.56-3.98L2.06-3.98L2.06 0L0.89 0L0.89-8.58L2.06-8.58L2.06-5.06ZM10.83-1.03L15.98-1.03L15.98 0L9.66 0L9.66-8.58L15.89-8.58L15.89-7.59L10.83-7.59L10.83-4.92L15.52-4.92L15.52-3.89L10.83-3.89L10.83-1.03ZM23.02-3.89L18.80-3.89L18.80 0L17.63 0L17.63-8.58L23.58-8.58L23.58-7.59L18.80-7.59L18.80-4.92L23.02-4.92L23.02-3.89ZM26.06-1.03L31.22-1.03L31.22 0L24.89 0L24.89-8.58L31.13-8.58L31.13-7.59L26.06-7.59L26.06-4.92L30.75-4.92L30.75-3.89L26.06-3.89L26.06-1.03ZM32.91-8.58L34.08-8.58L34.08 0L32.91 0L32.91-8.58ZM42.61-7.64L40.55-7.64L40.55-4.97L42.61-4.97Q44.44-4.92 44.39-6.38L44.39-6.38Q44.39-7.64 42.61-7.64L42.61-7.64ZM43.08 0L39.38 0L39.38-8.58L43.17-8.58Q45.47-8.48 45.56-6.42L45.56-6.42Q45.56-5.16 44.44-4.64L44.44-4.64Q46.03-4.08 46.03-2.53L46.03-2.53Q45.89-0.09 43.08 0L43.08 0ZM42.80-3.98L40.55-3.98L40.55-0.98L43.03-0.98Q44.81-1.03 44.86-2.53L44.86-2.53Q44.86-3.98 42.80-3.98L42.80-3.98ZM47.53-8.58L48.70-8.58L48.70 0L47.53 0L47.53-8.58ZM52.08-8.58L56.39-1.64L56.39-8.58L57.52-8.58L57.52 0L56.20 0L51.84-6.94L51.80-6.94L51.80 0L50.67 0L50.67-8.58L52.08-8.58ZM65.72-3.61L63.09-3.61L63.09-4.59L66.84-4.59L66.84 0L66.09 0L65.81-1.08Q64.83 0.09 63 0.14L63 0.14Q61.27 0.14 60.33-0.75L60.33-0.75Q58.92-2.06 58.97-4.36L58.97-4.36Q59.30-8.63 63.05-8.81L63.05-8.81Q66.23-8.63 66.70-6L66.70-6L65.58-6Q65.11-7.78 63-7.83L63-7.83Q60.33-7.64 60.19-4.31L60.19-4.31Q60.19-0.75 63.05-0.75L63.05-0.75Q64.08-0.75 64.83-1.31L64.83-1.31Q65.77-2.06 65.72-3.61L65.72-3.61ZM75.80-6.05L75.80-6.05L74.67-6.05Q74.25-7.78 72.28-7.83L72.28-7.83Q69.56-7.69 69.47-4.36L69.47-4.36Q69.47-0.80 72.33-0.80L72.33-0.80Q74.30-0.84 74.77-3.19L74.77-3.19L75.89-3.19Q75.38 0.05 72.09 0.14L72.09 0.14Q68.34 0 68.25-4.31L68.25-4.31Q68.44-8.63 72.28-8.81L72.28-8.81Q75.33-8.72 75.80-6.05ZM78.42-5.06L82.92-5.06L82.92-8.58L84.09-8.58L84.09 0L82.92 0L82.92-3.98L78.42-3.98L78.42 0L77.25 0L77.25-8.58L78.42-8.58L78.42-5.06ZM91.55 0L90.70-2.48L87.23-2.48L86.34 0L85.17 0L88.41-8.58L89.72-8.58L92.81 0L91.55 0ZM88.97-7.31L87.61-3.52L90.28-3.52L89.02-7.31L88.97-7.31ZM95.25-8.58L99.56-1.64L99.56-8.58L100.69-8.58L100.69 0L99.38 0L95.02-6.94L94.97-6.94L94.97 0L93.84 0L93.84-8.58L95.25-8.58Z" transform="translate(-0.890625, 8.8125)"></path></g></g></g></g></g><defs v-gra="od"></defs></svg>